<svg xmlns="http://www.w3.org/2000/svg" viewBox="0 0 567 198"><title>jflogo-white</title><polygon points="522 99 567 99 468 0 468 45 522 99" style="fill:#ddd"/><polygon points="522 99 567 99 468 198 468 153 522 99" style="fill:#fff"/><polygon points="45 99 0 99 99 198 99 153 45 99" style="fill:#ddd"/><polygon points="45 99 0 99 99 0 99 45 45 99" style="fill:#fff"/><polygon points="350.59 81 261 81 261 117 342.41 117 350.59 81" style="fill:#fff"/><polygon points="180 117 225 117 261 198 216 198 180 117" style="fill:#fff"/><polygon points="387 0 279 0 279 36 378.82 36 387 0" style="fill:#fff"/><polygon points="279 198 234 198 279 0 324 0 279 198" style="fill:#ddd"/></svg>